<?xml version="1.0" standalone="no"?>
<!DOCTYPE svg PUBLIC "-//W3C//DTD SVG 20010904//EN"
 "http://www.w3.org/TR/2001/REC-SVG-20010904/DTD/svg10.dtd">
<svg version="1.0" xmlns="http://www.w3.org/2000/svg"
 width="1161.000000pt" height="1280.000000pt" viewBox="0 0 1161.000000 1280.000000"
 preserveAspectRatio="xMidYMid meet">
<g transform="translate(0.000000,1280.000000) scale(0.100000,-0.100000)"
fill="#000000" stroke="none">
<path d="M5675 12689 c-44 -5 -120 -20 -168 -34 -429 -123 -743 -486 -807
-931 -8 -57 -10 -756 -8 -2529 l3 -2450 27 -97 c97 -350 342 -638 653 -764
167 -68 219 -78 430 -78 164 0 201 3 268 22 409 113 701 408 815 820 l27 97 3
2450 c2 1773 0 2472 -8 2529 -73 514 -483 913 -991 966 -112 11 -129 11 -244
-1z"/>
<path d="M2535 10279 c-165 -21 -363 -99 -504 -199 -40 -29 -108 -88 -150
-133 -42 -44 -126 -132 -187 -196 -340 -357 -620 -731 -851 -1141 -117 -208
-138 -249 -213 -410 -693 -1496 -704 -3219 -30 -4725 538 -1202 1508 -2207
2695 -2790 820 -402 1764 -609 2650 -581 945 31 1826 269 2612 706 1161 647
2063 1671 2549 2892 357 898 477 1866 353 2842 -90 711 -337 1449 -694 2076
-257 450 -736 1067 -941 1210 -267 187 -338 225 -511 271 -122 33 -355 38
-492 9 -421 -86 -744 -394 -859 -819 -23 -87 -26 -113 -26 -276 0 -163 3 -189
27 -278 30 -112 95 -256 157 -347 57 -84 178 -210 258 -268 107 -78 329 -372
474 -627 230 -406 368 -834 430 -1335 19 -159 16 -582 -6 -755 -83 -657 -317
-1221 -722 -1745 -104 -133 -350 -389 -479 -498 -530 -445 -1147 -720 -1814
-807 -913 -119 -1832 123 -2566 675 -1217 916 -1698 2508 -1188 3934 181 506
486 973 874 1337 148 139 230 242 294 369 90 180 120 327 112 547 -6 171 -32
281 -97 420 -207 442 -675 702 -1155 642z"/>
</g>
</svg>
