<?xml version="1.0" encoding="UTF-8" standalone="no"?>
<!-- Created with Inkscape (http://www.inkscape.org/) -->

<svg
   xmlns:dc="http://purl.org/dc/elements/1.1/"
   xmlns:cc="http://creativecommons.org/ns#"
   xmlns:rdf="http://www.w3.org/1999/02/22-rdf-syntax-ns#"
   xmlns:svg="http://www.w3.org/2000/svg"
   xmlns="http://www.w3.org/2000/svg"
   xmlns:sodipodi="http://sodipodi.sourceforge.net/DTD/sodipodi-0.dtd"
   xmlns:inkscape="http://www.inkscape.org/namespaces/inkscape"
   width="33.168621mm"
   height="29.257418mm"
   viewBox="0 0 33.168621 29.257418"
   version="1.1"
   id="svg5415"
   inkscape:version="0.92.3 (2405546, 2018-03-11)"
   sodipodi:docname="oveja-zombie-blog.svg">
  <defs
     id="defs5409">
    <clipPath
       id="clipPath4135"
       clipPathUnits="userSpaceOnUse">
      <path
         inkscape:connector-curvature="0"
         id="path4133"
         d="m 192.893,204.913 h 87.83 v -5.595 h -87.83 z" />
    </clipPath>
  </defs>
  <sodipodi:namedview
     id="base"
     pagecolor="#ffffff"
     bordercolor="#666666"
     borderopacity="1.0"
     inkscape:pageopacity="0.0"
     inkscape:pageshadow="2"
     inkscape:zoom="3.959798"
     inkscape:cx="49.275349"
     inkscape:cy="57.18561"
     inkscape:document-units="mm"
     inkscape:current-layer="layer1"
     showgrid="false"
     inkscape:window-width="1280"
     inkscape:window-height="996"
     inkscape:window-x="0"
     inkscape:window-y="500"
     inkscape:window-maximized="1"
     fit-margin-top="0"
     fit-margin-left="0"
     fit-margin-right="0"
     fit-margin-bottom="0" />
  <metadata
     id="metadata5412">
    <rdf:RDF>
      <cc:Work
         rdf:about="">
        <dc:format>image/svg+xml</dc:format>
        <dc:type
           rdf:resource="http://purl.org/dc/dcmitype/StillImage" />
        <dc:title></dc:title>
      </cc:Work>
    </rdf:RDF>
  </metadata>
  <g
     inkscape:label="Layer 1"
     inkscape:groupmode="layer"
     id="layer1"
     transform="translate(-70.437331,-91.37786)">
    <g
       transform="matrix(0.35277777,0,0,-0.35277777,97.131249,109.01191)"
       id="g4145">
      <path
         inkscape:connector-curvature="0"
         id="path4147"
         style="fill:#7db362;fill-opacity:1;fill-rule:nonzero;stroke:none"
         d="M 0,0 11.313,-5.7 H 3.625 L 8.188,-11.563 1.368,-8 c 0,0 0.242,-7.313 0,-7.125 -0.243,0.187 -3.681,5.625 -3.681,5.625 0,0 -2.522,-7.136 -2.76,-6.975 -0.239,0.163 -2.29,10.551 -1.945,10.775 C -6.672,-5.476 0,0 0,0" />
    </g>
    <g
       transform="matrix(0.35277777,0,0,-0.35277777,91.84304,118.36053)"
       id="g4149">
      <path
         inkscape:connector-curvature="0"
         id="path4151"
         style="fill:#466c73;fill-opacity:1;fill-rule:nonzero;stroke:none"
         d="m 0,0 v 23.499 c 0,1.657 -1.343,3 -3,3 -1.656,0 -3,-1.343 -3,-3 V 0 Z" />
    </g>
    <g
       transform="matrix(0.35277777,0,0,-0.35277777,87.213679,118.36053)"
       id="g4153">
      <path
         inkscape:connector-curvature="0"
         id="path4155"
         style="fill:#5f8c93;fill-opacity:1;fill-rule:nonzero;stroke:none"
         d="m 0,0 v 23.499 c 0,1.657 -1.343,3 -3,3 -1.657,0 -3,-1.343 -3,-3 V 0 Z" />
    </g>
    <g
       transform="matrix(0.35277777,0,0,-0.35277777,82.091168,118.36053)"
       id="g4157">
      <path
         inkscape:connector-curvature="0"
         id="path4159"
         style="fill:#466c73;fill-opacity:1;fill-rule:nonzero;stroke:none"
         d="m 0,0 v 23.499 c 0,1.657 -1.343,3 -3,3 -1.657,0 -3,-1.343 -3,-3 V 0 Z" />
    </g>
    <g
       transform="matrix(0.35277777,0,0,-0.35277777,77.461632,118.36053)"
       id="g4161">
      <path
         inkscape:connector-curvature="0"
         id="path4163"
         style="fill:#5f8c93;fill-opacity:1;fill-rule:nonzero;stroke:none"
         d="m 0,0 v 23.293 c 0,1.657 -1.343,3 -3,3 -1.657,0 -3,-1.343 -3,-3 V 0 Z" />
    </g>
    <g
       transform="matrix(0.35277777,0,0,-0.35277777,98.597464,105.91823)"
       id="g4165">
      <path
         inkscape:connector-curvature="0"
         id="path4167"
         style="fill:#ffffff;fill-opacity:1;fill-rule:nonzero;stroke:none"
         d="m 0,0 c 0,1.835 -0.806,3.463 -2.053,4.507 0.703,0.969 1.126,2.186 1.126,3.512 0,2.54 -1.538,4.689 -3.664,5.43 0.118,0.474 0.187,0.969 0.187,1.484 0,2.742 -1.794,5.031 -4.185,5.581 -0.866,1.882 -2.66,3.179 -4.74,3.179 -0.576,0 -1.128,-0.103 -1.647,-0.285 -0.97,1.299 -2.456,2.132 -4.123,2.132 -0.831,0 -1.613,-0.212 -2.313,-0.58 -0.927,0.864 -2.133,1.389 -3.454,1.389 -0.966,0 -1.868,-0.283 -2.647,-0.769 -0.779,0.486 -1.681,0.769 -2.647,0.769 -1.079,0 -2.081,-0.35 -2.918,-0.948 -0.837,0.598 -1.84,0.948 -2.919,0.948 -1.158,0 -2.227,-0.406 -3.098,-1.087 -0.872,0.681 -1.94,1.087 -3.099,1.087 -1.838,0 -3.456,-1.011 -4.405,-2.545 -0.962,1.069 -2.307,1.736 -3.797,1.736 -2.35,0 -4.34,-1.653 -5.031,-3.939 -0.971,1.276 -2.444,2.092 -4.095,2.092 -2.311,0 -4.27,-1.6 -4.992,-3.826 -0.927,0.86 -2.13,1.383 -3.448,1.383 -2.924,0 -5.293,-2.556 -5.293,-5.709 0,-0.008 10e-4,-0.015 10e-4,-0.023 -0.142,0.012 -0.283,0.023 -0.427,0.023 -2.923,0 -5.293,-2.556 -5.293,-5.708 0,-1.891 0.856,-3.562 2.17,-4.601 -1.784,-0.919 -3.02,-2.876 -3.02,-5.149 0,-2.301 1.264,-4.278 3.083,-5.182 -1.35,-1.034 -2.233,-2.73 -2.233,-4.651 0,-3.153 2.37,-5.709 5.293,-5.709 0.748,0 1.458,0.169 2.103,0.471 -0.183,-0.578 -0.287,-1.197 -0.287,-1.842 0,-3.152 2.37,-5.708 5.294,-5.708 1.302,0 2.493,0.509 3.415,1.351 0.951,-1.52 2.562,-2.518 4.389,-2.518 1.765,0 3.324,0.934 4.286,2.366 0.7,-2.267 2.681,-3.905 5.019,-3.905 1.992,0 3.725,1.187 4.629,2.941 0.966,-1.379 2.494,-2.274 4.22,-2.274 1.323,0 2.529,0.526 3.457,1.391 0.82,-0.561 1.789,-0.891 2.832,-0.891 1.694,0 3.199,0.862 4.168,2.198 0.967,-1.121 2.342,-1.826 3.873,-1.826 1.599,0 3.03,0.768 4,1.977 0.794,-0.511 1.719,-0.81 2.71,-0.81 2.073,0 3.863,1.288 4.732,3.16 0.391,-0.1 0.797,-0.157 1.217,-0.157 2.653,0 4.845,2.107 5.228,4.854 2.893,0.037 5.228,2.576 5.228,5.704 0,1.271 -0.39,2.441 -1.04,3.389 C -1.806,-5.048 0,-2.752 0,0" />
    </g>
    <g
       transform="matrix(0.35277777,0,0,-0.35277777,80.175162,99.462819)"
       id="g4169">
      <path
         inkscape:connector-curvature="0"
         id="path4171"
         style="fill:#5f8c93;fill-opacity:1;fill-rule:nonzero;stroke:none"
         d="M 0,0 C -0.018,-0.53 0.183,-1.044 0.563,-1.414 3.242,-4.019 7.3,-4.956 10.987,-3.465 14.939,-1.868 17.26,2.031 17.049,6.062 14.4,9.106 10.021,10.297 6.07,8.7 2.389,7.212 0.124,3.728 0,0" />
    </g>
    <g
       transform="matrix(0.35277777,0,0,-0.35277777,81.550783,99.199611)"
       id="g4173">
      <path
         inkscape:connector-curvature="0"
         id="path4175"
         style="fill:#42676e;fill-opacity:1;fill-rule:nonzero;stroke:none"
         d="M 0,0 C 1.439,-1.654 3.818,-2.301 5.965,-1.434 8.112,-0.566 9.373,1.553 9.258,3.742 7.819,5.396 5.44,6.044 3.293,5.176 1.146,4.308 -0.115,2.189 0,0" />
    </g>
    <g
       transform="matrix(0.35277777,0,0,-0.35277777,103.6056,99.462819)"
       id="g4177">
      <path
         inkscape:connector-curvature="0"
         id="path4179"
         style="fill:#5f8c93;fill-opacity:1;fill-rule:nonzero;stroke:none"
         d="m 0,0 c 0.017,-0.53 -0.184,-1.044 -0.563,-1.414 -2.679,-2.605 -6.738,-3.542 -10.424,-2.051 -3.952,1.597 -6.273,5.496 -6.063,9.527 2.65,3.044 7.029,4.235 10.98,2.638 C -2.39,7.212 -0.124,3.728 0,0" />
    </g>
    <g
       transform="matrix(0.35277777,0,0,-0.35277777,102.22998,99.199611)"
       id="g4181">
      <path
         inkscape:connector-curvature="0"
         id="path4183"
         style="fill:#42676e;fill-opacity:1;fill-rule:nonzero;stroke:none"
         d="m 0,0 c -1.439,-1.654 -3.818,-2.301 -5.966,-1.434 -2.146,0.868 -3.407,2.987 -3.293,5.176 1.44,1.654 3.819,2.302 5.965,1.434 C -1.146,4.308 0.114,2.189 0,0" />
    </g>
    <g
       transform="matrix(0.35277777,0,0,-0.35277777,100.41822,102.70171)"
       id="g4185">
      <path
         inkscape:connector-curvature="0"
         id="path4187"
         style="fill:#5f8c93;fill-opacity:1;fill-rule:nonzero;stroke:none"
         d="m 0,0 c 0,-14.705 -10.823,-30.035 -24.174,-30.035 -13.35,0 -24.173,15.33 -24.173,30.035 0,14.705 10.823,23.215 24.173,23.215 C -10.823,23.215 0,14.705 0,0" />
    </g>
    <g
       transform="matrix(0.35277777,0,0,-0.35277777,88.158487,101.22565)"
       id="g4189"
       style="fill:#00ff00">
      <path
         inkscape:connector-curvature="0"
         id="path4191"
         style="fill:#00ff00;fill-opacity:1;fill-rule:nonzero;stroke:none"
         d="m 0,0 c 0,-1.881 -1.525,-3.406 -3.406,-3.406 -1.881,0 -3.406,1.525 -3.406,3.406 0,1.881 1.525,3.406 3.406,3.406 C -1.525,3.406 0,1.881 0,0" />
    </g>
    <g
       transform="matrix(0.35277777,0,0,-0.35277777,87.746973,100.81414)"
       id="g4193">
      <path
         inkscape:connector-curvature="0"
         id="path4195"
         style="fill:#ffffff;fill-opacity:1;fill-rule:nonzero;stroke:none"
         d="m 0,0 c 0,-0.592 -0.48,-1.073 -1.073,-1.073 -0.593,0 -1.073,0.481 -1.073,1.073 0,0.593 0.48,1.073 1.073,1.073 C -0.48,1.073 0,0.593 0,0" />
    </g>
    <g
       transform="matrix(0.35277777,0,0,-0.35277777,98.02526,101.22565)"
       id="g4197"
       style="fill:#00ff00">
      <path
         inkscape:connector-curvature="0"
         id="path4199"
         style="fill:#00ff00;fill-opacity:1;fill-rule:nonzero;stroke:none"
         d="m 0,0 c 0,-1.881 -1.524,-3.406 -3.406,-3.406 -1.881,0 -3.406,1.525 -3.406,3.406 0,1.881 1.525,3.406 3.406,3.406 C -1.524,3.406 0,1.881 0,0" />
    </g>
    <g
       transform="matrix(0.35277777,0,0,-0.35277777,97.61392,100.81414)"
       id="g4201">
      <path
         inkscape:connector-curvature="0"
         id="path4203"
         style="fill:#ffffff;fill-opacity:1;fill-rule:nonzero;stroke:none"
         d="m 0,0 c 0,-0.592 -0.48,-1.073 -1.073,-1.073 -0.593,0 -1.073,0.481 -1.073,1.073 0,0.593 0.48,1.073 1.073,1.073 C -0.48,1.073 0,0.593 0,0" />
    </g>
    <g
       transform="matrix(0.35277777,0,0,-0.35277777,76.975185,120.58021)"
       id="g4205">
      <path
         inkscape:connector-curvature="0"
         id="path4207"
         style="fill:#42676e;fill-opacity:1;fill-rule:nonzero;stroke:none"
         d="m 0,0 -1.123,0.772 c -0.3,0.207 -0.697,0.207 -0.997,0 L -3.243,0 c -0.584,-0.401 -1.379,0.017 -1.379,0.726 v 5.889 h 6 V 0.726 C 1.378,0.017 0.584,-0.401 0,0" />
    </g>
    <g
       transform="matrix(0.35277777,0,0,-0.35277777,81.604724,120.58021)"
       id="g4209">
      <path
         inkscape:connector-curvature="0"
         id="path4211"
         style="fill:#42676e;fill-opacity:1;fill-rule:nonzero;stroke:none"
         d="m 0,0 -1.123,0.772 c -0.3,0.207 -0.697,0.207 -0.997,0 L -3.243,0 c -0.584,-0.401 -1.379,0.017 -1.379,0.726 v 5.889 h 6 V 0.726 C 1.378,0.017 0.584,-0.401 0,0" />
    </g>
    <g
       transform="matrix(0.35277777,0,0,-0.35277777,86.727234,120.58021)"
       id="g4213">
      <path
         inkscape:connector-curvature="0"
         id="path4215"
         style="fill:#42676e;fill-opacity:1;fill-rule:nonzero;stroke:none"
         d="m 0,0 -1.123,0.772 c -0.3,0.207 -0.697,0.207 -0.997,0 L -3.243,0 c -0.584,-0.401 -1.379,0.017 -1.379,0.726 v 5.889 h 6 V 0.726 C 1.378,0.017 0.584,-0.401 0,0" />
    </g>
    <g
       transform="matrix(0.35277777,0,0,-0.35277777,91.356559,120.58021)"
       id="g4217">
      <path
         inkscape:connector-curvature="0"
         id="path4219"
         style="fill:#42676e;fill-opacity:1;fill-rule:nonzero;stroke:none"
         d="m 0,0 -1.122,0.772 c -0.301,0.207 -0.697,0.207 -0.998,0 L -3.242,0 c -0.584,-0.401 -1.379,0.017 -1.379,0.726 v 5.889 h 6 V 0.726 C 1.379,0.017 0.584,-0.401 0,0" />
    </g>
    <g
       transform="matrix(0.35277777,0,0,-0.35277777,92.166502,109.84186)"
       id="g4221">
      <path
         inkscape:connector-curvature="0"
         id="path4223"
         style="fill:#42676e;fill-opacity:1;fill-rule:nonzero;stroke:none"
         d="m 0,0 c 0,-2.13 -1.727,-3.856 -3.856,-3.856 -2.13,0 -3.857,1.726 -3.857,3.856 0,2.13 1.727,3.856 3.857,3.856 C -1.727,3.856 0,2.13 0,0" />
    </g>
    <g
       transform="matrix(0.35277777,0,0,-0.35277777,95.341502,109.84186)"
       id="g4225">
      <path
         inkscape:connector-curvature="0"
         id="path4227"
         style="fill:#42676e;fill-opacity:1;fill-rule:nonzero;stroke:none"
         d="m 0,0 c 0,-2.13 -1.727,-3.856 -3.856,-3.856 -2.13,0 -3.857,1.726 -3.857,3.856 0,2.13 1.727,3.856 3.857,3.856 C -1.727,3.856 0,2.13 0,0" />
    </g>
    <g
       transform="matrix(0.35277777,0,0,-0.35277777,99.192107,92.825307)"
       id="g4229">
      <path
         inkscape:connector-curvature="0"
         id="path4231"
         style="fill:#ffffff;fill-opacity:1;fill-rule:nonzero;stroke:none"
         d="m 0,0 c -1.205,0 -2.339,-0.296 -3.342,-0.81 -1.452,1.807 -3.678,2.965 -6.176,2.965 -1.25,0 -2.427,-0.297 -3.478,-0.812 -1.599,1.696 -3.86,2.76 -6.374,2.76 -2.515,0 -4.776,-1.064 -6.375,-2.76 -1.051,0.515 -2.229,0.812 -3.479,0.812 -2.498,0 -4.723,-1.158 -6.175,-2.965 -1.004,0.514 -2.137,0.81 -3.342,0.81 -4.057,0 -7.346,-3.289 -7.346,-7.347 0,-4.057 3.289,-7.346 7.346,-7.346 2.071,0 3.938,0.86 5.273,2.238 1.228,-0.781 2.681,-1.24 4.244,-1.24 1.881,0 3.606,0.658 4.965,1.753 1.397,-0.94 3.078,-1.49 4.889,-1.49 1.809,0 3.491,0.55 4.888,1.49 1.359,-1.095 3.084,-1.753 4.964,-1.753 1.564,0 3.017,0.459 4.245,1.24 1.335,-1.378 3.203,-2.238 5.273,-2.238 4.058,0 7.346,3.289 7.346,7.346 C 7.346,-3.289 4.058,0 0,0" />
    </g>
  </g>
</svg>
